<svg width="24" height="24" viewBox="0 0 24 24" fill="none" xmlns="http://www.w3.org/2000/svg">
<path d="M6.79014 10.6621C8.12728 13.29 10.2816 15.4443 12.9094 16.7814L14.9523 14.7386C15.2123 14.4786 15.5744 14.4043 15.8994 14.5064C16.9394 14.85 18.0537 15.0357 19.2144 15.0357C19.4607 15.0357 19.6969 15.1335 19.871 15.3077C20.0452 15.4818 20.143 15.718 20.143 15.9643V19.2143C20.143 19.4606 20.0452 19.6967 19.871 19.8709C19.6969 20.045 19.4607 20.1429 19.2144 20.1429C15.0278 20.1429 11.0126 18.4797 8.05224 15.5193C5.09184 12.5589 3.42871 8.54378 3.42871 4.35715C3.42871 4.11087 3.52654 3.87469 3.70068 3.70055C3.87482 3.5264 4.11101 3.42857 4.35728 3.42857H7.60728C7.85355 3.42857 8.08974 3.5264 8.26388 3.70055C8.43802 3.87469 8.53585 4.11087 8.53585 4.35715C8.53585 5.51786 8.72157 6.63215 9.06514 7.67215C9.16728 7.99715 9.093 8.35929 8.833 8.61929L6.79014 10.6621Z" fill="#027BFF"/>
</svg>
