<svg width="24" height="24" viewBox="0 0 24 24" fill="none" xmlns="http://www.w3.org/2000/svg">
<g opacity="0.5">
<path d="M13.598 13.2344L14.768 11.2079C14.8432 11.0823 14.8098 10.9232 14.7012 10.8311L13.4643 9.85974C13.4894 9.67551 13.5061 9.48291 13.5061 9.29031C13.5061 9.09771 13.4894 8.90511 13.4643 8.71251L14.7012 7.74114C14.8098 7.64903 14.8432 7.48993 14.768 7.36432L13.598 5.33784C13.5228 5.21223 13.3724 5.16198 13.2387 5.21223L11.7845 5.7984C11.4837 5.56393 11.1578 5.37133 10.7984 5.2206L10.5811 3.67143C10.5671 3.60371 10.5305 3.54277 10.4774 3.49864C10.4242 3.45451 10.3576 3.42981 10.2886 3.42859H7.94866C7.80659 3.42859 7.68123 3.53745 7.65616 3.67981L7.43888 5.22898C7.08788 5.37971 6.7536 5.5723 6.45274 5.80677L4.99862 5.2206C4.8649 5.17036 4.71448 5.2206 4.63926 5.34621L3.46927 7.37269C3.39406 7.4983 3.42749 7.6574 3.53613 7.74952L4.77298 8.72089C4.7479 8.90511 4.73119 9.09771 4.73119 9.29031C4.73119 9.48291 4.7479 9.67551 4.77298 9.86811L3.53613 10.8395C3.42749 10.9316 3.39406 11.0907 3.46927 11.2163L4.63926 13.2428C4.71448 13.3684 4.8649 13.4186 4.99862 13.3684L6.45274 12.7822C6.7536 13.0167 7.07952 13.2093 7.43888 13.36L7.65616 14.9092C7.68123 15.0432 7.80659 15.152 7.94866 15.152H10.2886C10.4307 15.152 10.5561 15.0432 10.5811 14.9008L10.7984 13.3516C11.1494 13.2009 11.4837 13.0083 11.7845 12.7739L13.2387 13.36C13.3724 13.4103 13.5228 13.36 13.598 13.2344ZM9.11864 10.9651C8.19937 10.9651 7.44723 10.2114 7.44723 9.29031C7.44723 8.36918 8.19937 7.61553 9.11864 7.61553C10.0379 7.61553 10.7901 8.36918 10.7901 9.29031C10.7901 10.2114 10.0379 10.9651 9.11864 10.9651ZM20.0747 17.3879L19.2725 16.7682C19.2892 16.651 19.3059 16.5254 19.3059 16.3997C19.3059 16.2741 19.2975 16.1485 19.2725 16.0313L20.0664 15.4116C20.1332 15.353 20.1583 15.2525 20.1082 15.1688L19.356 13.8708C19.3142 13.7871 19.214 13.762 19.122 13.7871L18.1944 14.1639C18.0022 14.0132 17.7933 13.8876 17.5593 13.7955L17.4172 12.8073C17.4139 12.7626 17.3941 12.7207 17.3617 12.6897C17.3292 12.6588 17.2865 12.641 17.2417 12.6399H15.7458C15.6539 12.6399 15.5703 12.7069 15.5619 12.799L15.4199 13.7871C15.1942 13.8876 14.9769 14.0048 14.7847 14.1555L13.8571 13.7787C13.8145 13.7627 13.7676 13.7623 13.7248 13.7776C13.6819 13.7929 13.6459 13.823 13.6231 13.8625L12.871 15.1604C12.8292 15.2441 12.8375 15.3446 12.9127 15.4033L13.7067 16.0229C13.6728 16.2674 13.6728 16.5154 13.7067 16.7598L12.9127 17.3795C12.8459 17.4381 12.8208 17.5386 12.871 17.6223L13.6231 18.9203C13.6649 19.004 13.7652 19.0291 13.8571 19.004L14.7847 18.6272C14.9769 18.7779 15.1859 18.9035 15.4199 18.9957L15.5619 19.9838C15.5786 20.0759 15.6539 20.1429 15.7458 20.1429H17.2417C17.3336 20.1429 17.4172 20.0759 17.4256 19.9838L17.5676 18.9957C17.7933 18.8952 18.0105 18.7779 18.1944 18.6272L19.1304 19.004C19.214 19.0375 19.3142 19.004 19.3644 18.9203L20.1165 17.6223C20.1667 17.547 20.1416 17.4465 20.0747 17.3879ZM16.4896 17.5218C16.3414 17.5218 16.1946 17.4925 16.0577 17.4356C15.9208 17.3787 15.7964 17.2954 15.6916 17.1903C15.5869 17.0853 15.5038 16.9606 15.4471 16.8233C15.3904 16.6861 15.3613 16.539 15.3614 16.3905C15.3614 16.242 15.3907 16.095 15.4474 15.9578C15.5042 15.8206 15.5874 15.696 15.6922 15.591C15.7971 15.486 15.9215 15.4028 16.0585 15.346C16.1954 15.2892 16.3422 15.26 16.4904 15.2601C16.7897 15.2602 17.0768 15.3794 17.2883 15.5916C17.4999 15.8037 17.6187 16.0914 17.6186 16.3914C17.6185 16.6913 17.4995 16.9789 17.2877 17.1909C17.076 17.4029 16.7889 17.522 16.4896 17.5218Z" fill="#212529"/>
</g>
</svg>
