<svg width="24" height="24" viewBox="0 0 24 24" fill="none" xmlns="http://www.w3.org/2000/svg">
<path d="M11.7859 3.42857C16.4015 3.42857 20.143 7.17006 20.143 11.7857C20.143 16.4014 16.4015 20.1428 11.7859 20.1428C10.3089 20.1454 8.85801 19.7545 7.58222 19.0105L3.43207 20.1428L4.56195 15.991C3.8173 14.7148 3.42614 13.2633 3.42872 11.7857C3.42872 7.17006 7.17021 3.42857 11.7859 3.42857ZM8.93775 7.85786L8.7706 7.86454C8.66254 7.87199 8.55695 7.90037 8.45972 7.94811C8.36911 7.99952 8.28636 8.06369 8.21402 8.13866C8.11373 8.23309 8.05691 8.31499 7.9959 8.39438C7.68679 8.79628 7.52035 9.2897 7.52288 9.79671C7.52456 10.2062 7.63153 10.6048 7.79867 10.9776C8.14048 11.7314 8.70291 12.5295 9.44503 13.2691C9.62387 13.4471 9.79937 13.626 9.98824 13.7923C10.9104 14.6041 12.0092 15.1895 13.1974 15.5021L13.6721 15.5748C13.8267 15.5832 13.9813 15.5715 14.1367 15.564C14.3801 15.5511 14.6177 15.4853 14.8329 15.3709C14.9422 15.3144 15.049 15.253 15.153 15.1871C15.153 15.1871 15.1883 15.1631 15.2574 15.1118C15.3702 15.0283 15.4396 14.9689 15.5332 14.8712C15.6034 14.7987 15.6619 14.7146 15.7087 14.6188C15.7739 14.4826 15.8391 14.2227 15.8658 14.0062C15.8859 13.8407 15.88 13.7505 15.8775 13.6945C15.8742 13.6051 15.7998 13.5123 15.7187 13.473L15.2323 13.2549C15.2323 13.2549 14.5053 12.9382 14.0607 12.7359C14.0141 12.7157 13.9643 12.704 13.9136 12.7017C13.8564 12.6957 13.7986 12.7021 13.7441 12.7204C13.6896 12.7387 13.6397 12.7685 13.5977 12.8078C13.5935 12.8061 13.5375 12.8538 12.9333 13.5858C12.8986 13.6324 12.8508 13.6677 12.7961 13.687C12.7413 13.7064 12.682 13.709 12.6258 13.6945C12.5713 13.68 12.5179 13.6615 12.4661 13.6393C12.3625 13.5959 12.3266 13.5792 12.2555 13.5491C11.7757 13.3401 11.3316 13.0572 10.9393 12.7108C10.834 12.6189 10.7362 12.5186 10.6359 12.4217C10.3072 12.1068 10.0206 11.7506 9.78349 11.362L9.73418 11.2826C9.6993 11.229 9.6707 11.1715 9.64894 11.1113C9.61718 10.9884 9.69992 10.8898 9.69992 10.8898C9.69992 10.8898 9.903 10.6675 9.99743 10.5472C10.0894 10.4302 10.1671 10.3165 10.2172 10.2355C10.3158 10.0767 10.3468 9.91371 10.2949 9.78752C10.0609 9.21589 9.81915 8.64733 9.56955 8.08183C9.52024 7.96984 9.37399 7.88961 9.24111 7.87373C9.19598 7.86816 9.15085 7.86371 9.10573 7.86036C8.99351 7.85393 8.881 7.85504 8.76893 7.86371L8.93775 7.85786Z" fill="#027BFF"/>
</svg>
