<svg width="20" height="20" viewBox="0 0 20 20" fill="none" xmlns="http://www.w3.org/2000/svg">
<path d="M10.0665 2.85693C8.91214 2.85693 7.80502 3.31552 6.98874 4.1318C6.17245 4.94809 5.71387 6.05521 5.71387 7.20961C5.71387 11.5623 10.0665 16.7855 10.0665 16.7855C10.0665 16.7855 14.4192 11.5623 14.4192 7.20961C14.4192 6.05521 13.9606 4.94809 13.1444 4.1318C12.3281 3.31552 11.2209 2.85693 10.0665 2.85693ZM10.0665 9.82122C9.3739 9.82122 8.70963 9.54607 8.21986 9.0563C7.73009 8.56653 7.45494 7.90225 7.45494 7.20961C7.45494 6.51697 7.73009 5.8527 8.21986 5.36293C8.70963 4.87316 9.3739 4.59801 10.0665 4.59801C10.7592 4.59801 11.4235 4.87316 11.9132 5.36293C12.403 5.8527 12.6782 6.51697 12.6782 7.20961C12.6782 7.90225 12.403 8.56653 11.9132 9.0563C11.4235 9.54607 10.7592 9.82122 10.0665 9.82122Z" fill="#027BFF"/>
</svg>
