<svg width="24" height="24" viewBox="0 0 24 24" fill="none" xmlns="http://www.w3.org/2000/svg">
<g opacity="0.5">
<path d="M12.0806 3.42856C10.6954 3.42856 9.36681 3.97886 8.38727 4.9584C7.40772 5.93794 6.85742 7.26649 6.85742 8.65177C6.85742 13.875 12.0806 20.1428 12.0806 20.1428C12.0806 20.1428 17.3038 13.875 17.3038 8.65177C17.3038 7.26649 16.7535 5.93794 15.774 4.9584C14.7945 3.97886 13.4659 3.42856 12.0806 3.42856ZM12.0806 11.7857C11.2495 11.7857 10.4523 11.4555 9.86461 10.8678C9.27689 10.2801 8.94671 9.48294 8.94671 8.65177C8.94671 7.8206 9.27689 7.02348 9.86461 6.43575C10.4523 5.84802 11.2495 5.51784 12.0806 5.51784C12.9118 5.51784 13.7089 5.84802 14.2967 6.43575C14.8844 7.02348 15.2146 7.8206 15.2146 8.65177C15.2146 9.48294 14.8844 10.2801 14.2967 10.8678C13.7089 11.4555 12.9118 11.7857 12.0806 11.7857Z" fill="#212529"/>
</g>
</svg>
