<svg width="48" height="48" viewBox="0 0 48 48" fill="none" xmlns="http://www.w3.org/2000/svg">
<path d="M41.1397 37.7118H27.9713C26.6847 33.6071 26.0415 29.3532 26.0415 24.95C26.0415 20.4722 27.2145 16.9272 29.5606 14.3152C31.9824 11.6285 35.5394 10.2852 40.2315 10.2852V16.5541C36.4475 16.5541 34.5555 18.8303 34.5555 23.3828V25.5097H41.1397V37.7118ZM21.9547 37.7118H8.7863C7.49973 33.6071 6.85645 29.3532 6.85645 24.95C6.85645 20.4722 8.02949 16.9272 10.3756 14.3152C12.7974 11.6285 16.3543 10.2852 21.0465 10.2852V16.5541C17.2625 16.5541 15.3705 18.8303 15.3705 23.3828V25.5097H21.9547V37.7118Z" fill="#027BFF"/>
</svg>
