<svg width="24" height="24" viewBox="0 0 24 24" fill="none" xmlns="http://www.w3.org/2000/svg">
<path d="M10.4511 15.0636L7.22754 11.8393L8.30181 10.765L10.4511 12.9136L14.7482 8.61572L15.8232 9.69075L10.4511 15.0636Z" fill="#027BFF"/>
<path fill-rule="evenodd" clip-rule="evenodd" d="M3.42871 11.7859C3.42871 7.17043 7.17043 3.42871 11.7859 3.42871C16.4013 3.42871 20.143 7.17043 20.143 11.7859C20.143 16.4013 16.4013 20.143 11.7859 20.143C7.17043 20.143 3.42871 16.4013 3.42871 11.7859ZM11.7859 18.6235C10.8879 18.6235 9.99878 18.4467 9.16919 18.103C8.33961 17.7594 7.58583 17.2557 6.9509 16.6208C6.31596 15.9859 5.8123 15.2321 5.46868 14.4025C5.12505 13.5729 4.94819 12.6838 4.94819 11.7859C4.94819 10.8879 5.12505 9.99878 5.46868 9.16919C5.8123 8.33961 6.31596 7.58583 6.9509 6.9509C7.58583 6.31596 8.33961 5.8123 9.16919 5.46868C9.99878 5.12505 10.8879 4.94819 11.7859 4.94819C13.5993 4.94819 15.3385 5.66859 16.6208 6.9509C17.9031 8.23321 18.6235 9.97239 18.6235 11.7859C18.6235 13.5993 17.9031 15.3385 16.6208 16.6208C15.3385 17.9031 13.5993 18.6235 11.7859 18.6235Z" fill="#027BFF"/>
</svg>
