<svg width="24" height="24" viewBox="0 0 24 24" fill="none" xmlns="http://www.w3.org/2000/svg">
<path d="M10.8215 17.7855C12.3667 17.7853 13.8675 17.268 15.0846 16.316L18.9117 20.1428L20.1426 18.9119L16.3156 15.0851C17.2682 13.8679 17.7858 12.3669 17.786 10.8213C17.786 6.98142 14.6616 3.85712 10.8215 3.85712C6.9814 3.85712 3.85693 6.98142 3.85693 10.8213C3.85693 14.6612 6.9814 17.7855 10.8215 17.7855ZM10.8215 5.59816C13.7022 5.59816 16.0449 7.94073 16.0449 10.8213C16.0449 13.7018 13.7022 16.0444 10.8215 16.0444C7.94077 16.0444 5.59807 13.7018 5.59807 10.8213C5.59807 7.94073 7.94077 5.59816 10.8215 5.59816Z" fill="#0B0C0C"/>
</svg>
